<?xml version="1.0" standalone="no"?>
<!DOCTYPE svg PUBLIC "-//W3C//DTD SVG 20010904//EN"
 "http://www.w3.org/TR/2001/REC-SVG-20010904/DTD/svg10.dtd">
<svg version="1.0" xmlns="http://www.w3.org/2000/svg"
 width="1200.000000pt" height="400.000000pt" viewBox="0 0 1200.000000 360.000000"
 preserveAspectRatio="xMidYMid meet">

<g transform="translate(10.000000,460.000000) scale(0.100000,-0.100000)"
fill="#313638" stroke="none">
<path d="M1155 4074 c-229 -34 -400 -109 -520 -229 -105 -105 -155 -216 -155
-346 0 -274 164 -452 641 -697 450 -231 562 -336 563 -527 0 -86 -23 -142 -85
-204 -87 -87 -251 -133 -408 -114 -127 15 -190 43 -272 120 -115 108 -174 250
-186 441 -3 56 -10 102 -15 102 -5 0 -38 -21 -73 -46 -187 -133 -243 -282
-166 -438 98 -200 384 -308 771 -293 322 14 573 102 730 257 119 118 172 267
149 420 -23 151 -73 244 -195 360 -99 94 -195 155 -384 247 -540 262 -599 296
-657 385 -22 33 -28 55 -31 113 -4 65 -1 80 27 137 72 152 239 233 425 207
155 -21 320 -162 386 -330 25 -62 50 -176 50 -225 0 -19 2 -34 4 -34 23 0 151
58 189 86 65 48 102 124 94 196 -14 114 -129 249 -272 318 -132 65 -252 91
-430 95 -82 2 -163 1 -180 -1z"/>
<path d="M10245 4062 c-170 -52 -340 -192 -478 -393 l-57 -83 0 232 0 232
-352 0 c-194 0 -359 -4 -367 -9 -27 -17 -3 -38 60 -50 54 -11 68 -19 114 -65
43 -42 55 -62 64 -105 7 -34 11 -205 11 -496 l0 -443 -161 -244 c-227 -342
-322 -464 -413 -530 -47 -34 -110 -37 -171 -9 -50 23 -78 53 -107 116 -23 50
-23 52 -29 640 -6 629 -7 645 -59 775 -31 78 -103 182 -163 235 -67 60 -230
139 -336 164 -213 51 -515 54 -692 8 -142 -37 -249 -95 -335 -181 -184 -184
-200 -401 -42 -560 74 -73 144 -99 253 -94 98 5 167 38 224 107 33 40 61 82
61 93 0 2 -27 4 -60 4 -75 1 -129 35 -162 103 -31 64 -31 191 1 272 45 117
160 187 321 196 231 13 390 -96 464 -319 30 -89 46 -226 46 -391 l0 -124 -142
-23 c-79 -12 -229 -39 -335 -61 -565 -115 -770 -243 -828 -516 -57 -268 55
-509 282 -603 146 -61 290 -74 448 -41 121 25 190 53 278 111 127 82 227 195
274 310 22 54 23 54 23 20 0 -53 27 -147 57 -203 36 -65 127 -148 206 -187 83
-41 241 -73 329 -67 96 6 178 48 273 138 156 149 285 334 620 889 306 510 425
682 564 820 119 118 191 154 315 158 69 3 106 -1 151 -16 211 -66 360 -281
427 -614 20 -99 23 -143 22 -348 0 -214 -2 -246 -26 -356 -64 -301 -217 -505
-429 -575 -93 -30 -257 -32 -358 -5 -91 25 -208 86 -269 141 l-52 47 0 395 0
395 -29 29 c-35 35 -77 38 -113 9 -14 -10 -93 -131 -177 -268 l-151 -249 0
-636 c0 -433 -4 -653 -11 -688 -9 -43 -21 -63 -63 -105 -45 -45 -60 -53 -117
-65 -44 -10 -64 -19 -64 -29 0 -13 63 -15 490 -15 425 0 490 2 490 15 0 9 -18
18 -50 26 -88 19 -141 58 -181 134 -18 32 -19 68 -22 478 l-3 443 48 -34 c96
-69 217 -117 347 -137 108 -18 321 -8 411 19 285 85 520 290 661 576 120 243
149 516 88 813 -66 320 -272 610 -518 730 -113 55 -191 74 -321 78 -95 3 -132
0 -180 -14z m-2365 -1150 c0 -243 -23 -375 -89 -517 -133 -285 -467 -385 -646
-194 -82 88 -119 211 -103 349 25 226 173 362 478 440 74 19 313 66 348 69 9
1 12 -35 12 -147z"/>
<path d="M2323 4039 c-17 -17 -4 -39 23 -39 31 0 141 -41 195 -72 109 -65 114
-73 356 -603 123 -269 325 -712 450 -982 l226 -493 47 0 47 0 344 825 c189
453 347 821 350 817 4 -4 175 -375 380 -825 l374 -818 49 3 48 3 50 120 c353
848 745 1780 766 1818 50 93 172 177 290 198 60 12 78 25 60 46 -8 10 -75 13
-293 13 -249 0 -284 -2 -289 -16 -9 -23 -1 -31 44 -38 23 -3 53 -18 71 -34 26
-23 33 -38 36 -79 5 -49 -8 -83 -298 -776 -167 -399 -304 -725 -305 -724 0 1
-148 325 -329 720 -209 458 -329 733 -332 760 -3 23 0 54 6 69 12 31 76 68
116 68 22 0 26 4 23 23 l-3 22 -480 0 -480 0 -3 -21 c-3 -19 4 -23 60 -33 35
-6 92 -25 128 -43 96 -47 149 -106 210 -232 l51 -107 -253 -609 c-139 -335
-255 -606 -259 -602 -4 4 -152 322 -329 707 -365 792 -362 785 -299 848 24 24
48 37 77 42 37 6 43 10 40 28 l-3 22 -475 3 c-344 1 -479 -1 -487 -9z"/>
</g>
</svg>
